<svg xmlns="http://www.w3.org/2000/svg" width="131" height="29" viewBox="0 0 131 29" fill="none"><g clip-path="url(#clip0_1144_2804)"><path d="M128.129 23.1897C126.73 23.1897 125.577 24.2016 125.31 25.5368H113.044C112.787 24.2016 111.624 23.1897 110.225 23.1897C108.825 23.1897 107.673 24.2016 107.405 25.5368H95.1605C94.9032 24.2016 93.7405 23.1897 92.3411 23.1897C90.9416 23.1897 89.7892 24.2016 89.5216 25.5368H77.2664C77.0092 24.2016 75.8464 23.1897 74.447 23.1897C73.0476 23.1897 71.8951 24.2016 71.6276 25.5368H59.3724C59.1152 24.2016 57.9524 23.1897 56.553 23.1897C55.1536 23.1897 54.0011 24.2016 53.7336 25.5368H41.4681C41.2108 24.2016 40.0481 23.1897 38.6486 23.1897C37.2492 23.1897 36.0968 24.2016 35.8292 25.5368H23.574C23.3168 24.2016 22.154 23.1897 20.7546 23.1897C19.3552 23.1897 18.2027 24.2016 17.9352 25.5368H5.67999C5.42275 24.2016 4.25999 23.1897 2.86058 23.1897C1.28623 23.1897 0 24.4937 0 26.1001C0 27.7066 1.28623 29.0001 2.87087 29.0001C4.27028 29.0001 5.42275 27.9883 5.69028 26.653H17.9558C18.213 27.9883 19.3758 29.0001 20.7752 29.0001C22.1746 29.0001 23.3271 27.9883 23.5946 26.653H35.8601C36.1174 27.9883 37.2801 29.0001 38.6795 29.0001C40.0789 29.0001 41.2314 27.9883 41.4989 26.653H53.7644C54.0217 27.9883 55.1844 29.0001 56.5839 29.0001C57.9833 29.0001 59.1357 27.9883 59.4033 26.653H71.6688C71.926 27.9883 73.0888 29.0001 74.4882 29.0001C75.8876 29.0001 77.0401 27.9883 77.3076 26.653H89.5731C89.8303 27.9883 90.9931 29.0001 92.3925 29.0001C93.7919 29.0001 94.9444 27.9883 95.2119 26.653H107.426C107.683 27.9883 108.846 29.0001 110.245 29.0001C111.645 29.0001 112.797 27.9883 113.065 26.653H125.33C125.588 27.9883 126.75 29.0001 128.15 29.0001C129.734 29.0001 131.021 27.6962 131.021 26.0897C131 24.4937 129.714 23.1897 128.129 23.1897ZM20.7649 27.9152C19.7771 27.9152 18.9642 27.1016 18.9642 26.0897C18.9642 25.0883 19.7668 24.2642 20.7649 24.2642C21.7527 24.2642 22.5656 25.0778 22.5656 26.0897C22.5553 27.1016 21.7527 27.9152 20.7649 27.9152ZM56.553 27.9152C55.5652 27.9152 54.7523 27.1016 54.7523 26.0897C54.7523 25.0883 55.5549 24.2642 56.553 24.2642C57.5408 24.2642 58.3537 25.0778 58.3537 26.0897C58.3537 27.1016 57.5408 27.9152 56.553 27.9152ZM92.3411 27.9152C91.3532 27.9152 90.5403 27.1016 90.5403 26.0897C90.5403 25.0883 91.3429 24.2642 92.3411 24.2642C93.3289 24.2642 94.1418 25.0778 94.1418 26.0897C94.1418 27.1016 93.3392 27.9152 92.3411 27.9152ZM128.129 27.9152C127.141 27.9152 126.328 27.1016 126.328 26.0897C126.328 25.0883 127.131 24.2642 128.129 24.2642C129.127 24.2642 129.93 25.0778 129.93 26.0897C129.93 27.1016 129.127 27.9152 128.129 27.9152Z" fill="#0089CF"/><path d="M45.4092 18.7353V0H61.2453C62.7064 0 63.756 0.292088 64.4145 0.865829C65.0628 1.45 65.3921 2.36799 65.3921 3.63022V5.91475C65.3921 6.81187 65.1142 7.53166 64.5689 8.06367C64.0235 8.60612 63.2312 8.93993 62.2125 9.06511C63.2723 9.21115 64.0955 9.58669 64.6718 10.2126C65.248 10.8385 65.5361 11.6522 65.5361 12.6536V15.0425C65.5361 16.2838 65.0834 17.2018 64.1881 17.8068C63.2929 18.4119 61.9244 18.7144 60.0928 18.7144H45.4092V18.7353ZM59.4445 3.04605H49.6383V7.51079H59.4445C60.1854 7.51079 60.7102 7.40648 60.988 7.20828C61.2761 7.01007 61.4202 6.6554 61.4202 6.16511V4.39173C61.4202 3.91187 61.2761 3.5572 60.988 3.35899C60.7102 3.15036 60.1957 3.04605 59.4445 3.04605ZM59.4445 10.5986H49.6383V15.3658H59.4445C60.2574 15.3658 60.8131 15.2407 61.1012 14.9903C61.3893 14.7399 61.5334 14.3018 61.5334 13.6759V12.2572C61.5334 11.6313 61.3893 11.1932 61.1012 10.9532C60.8131 10.7237 60.2677 10.5986 59.4445 10.5986Z" fill="#0089CF"/><path d="M97.8563 18.7353H102.476V11.3288L110.791 0H105.707L100.398 7.26043L95.078 0H89.6553L97.8563 11.3288V18.7353Z" fill="#0089CF"/><path d="M30.9207 18.7353H35.5409V11.3288L43.8551 0H38.7719L33.4623 7.26043L28.1528 0H22.7197L30.9207 11.3288V18.7353Z" fill="#0089CF"/><path d="M126.73 18.7353C129.271 18.7353 131 17.327 131 14.2809V11.7043C131 9.01295 129.611 7.25 126.73 7.25H115.637V3.74496H131V0H115.298C112.643 0 111.027 1.52302 111.027 4.45432V6.79101C111.027 9.36763 112.53 11.1201 115.298 11.1201H126.39V14.9799H111.305V18.7248" fill="#0089CF"/><path d="M84.5002 18.7353C87.0417 18.7353 88.7704 17.327 88.7704 14.2809V11.7043C88.7704 9.01295 87.3813 7.25 84.5002 7.25H73.4077V3.74496H88.4412V0H73.0681C70.4134 0 68.7979 1.52302 68.7979 4.45432V6.79101C68.7979 9.36763 70.3002 11.1201 73.0681 11.1201H84.1606V14.9799H69.0654V18.7248" fill="#0089CF"/><path d="M0 18.7353H4.27028V5.38274L18.2439 18.7353H21.1353V0H16.8651V11.2453L5.19637 0H0V18.7353Z" fill="#0089CF"/></g><defs><clipPath id="clip0_1144_2804"><rect width="131" height="29" fill="white"/></clipPath></defs></svg>